<?xml version="1.0" encoding="UTF-8" standalone="no"?>
<!-- Created with Inkscape (http://www.inkscape.org/) -->

<svg
   width="158.5267mm"
   height="158.5267mm"
   viewBox="0 0 158.5267 158.5267"
   version="1.1"
   id="svg5"
   inkscape:export-filename="/home/daniel/unpdf_regular_alt.png"
   inkscape:export-xdpi="96"
   inkscape:export-ydpi="96"
   inkscape:version="1.1.2 (1:1.1+202205011109+08b2f3d93c)"
   sodipodi:docname="unpdf.svg.2022_05_14_13_14_07.0.svg"
   xmlns:inkscape="http://www.inkscape.org/namespaces/inkscape"
   xmlns:sodipodi="http://sodipodi.sourceforge.net/DTD/sodipodi-0.dtd"
   xmlns="http://www.w3.org/2000/svg"
   xmlns:svg="http://www.w3.org/2000/svg">
  <sodipodi:namedview
     id="namedview7"
     pagecolor="#505050"
     bordercolor="#ffffff"
     borderopacity="1"
     inkscape:pageshadow="0"
     inkscape:pageopacity="0"
     inkscape:pagecheckerboard="1"
     inkscape:document-units="mm"
     showgrid="false"
     inkscape:zoom="1.0633188"
     inkscape:cx="332.4497"
     inkscape:cy="339.97331"
     inkscape:window-width="1920"
     inkscape:window-height="1016"
     inkscape:window-x="0"
     inkscape:window-y="27"
     inkscape:window-maximized="1"
     inkscape:current-layer="layer1" />
  <defs
     id="defs2">
    <inkscape:path-effect
       effect="powerclip"
       id="path-effect1137"
       is_visible="true"
       lpeversion="0"
       inverse="true"
       flatten="false"
       hide_clip="false"
       message="Utilice la regla de relleno parimpar en el diálogo &lt;b&gt;Relleno y borde&lt;/b&gt; si el resultado no está aplanada después de convertir el recorte en trayectos." />
    <clipPath
       clipPathUnits="userSpaceOnUse"
       id="clipPath118350">
      <path
         style="fill:#55595b;fill-opacity:1;stroke:#0c0c0c;stroke-width:1;stroke-opacity:1"
         d="m 90.05969,199.86516 c -13.606198,-4.0798 -27.587411,-8.26835 -31.069367,-9.3079 -3.481957,-1.03955 -6.687775,-2.13187 -7.124044,-2.42738 -0.436266,-0.29551 -1.069973,-1.06203 -1.408234,-1.70338 l -0.615019,-1.1661 v -45.07244 c 0,-42.605178 0.02535,-45.093224 0.463021,-45.451962 0.588237,-0.482147 16.293023,-11.524169 17.116263,-12.034431 0.56333,-0.349165 1.21181,-0.200455 7.855392,1.801399 3.982749,1.20009 18.135579,5.449365 31.450738,9.442832 13.31516,3.993466 24.74389,7.460052 25.39718,7.703522 1.5919,0.59327 3.73923,2.77284 4.38795,4.45383 0.49433,1.28094 0.51178,2.57713 0.57982,43.08168 0.0466,27.73683 -0.0203,42.09708 -0.19933,42.76181 -0.35664,1.32447 -1.14856,2.29153 -2.39884,2.92937 -1.2973,0.66184 -2.67024,0.6607 -4.7906,-0.004 -0.92247,-0.28917 -1.82344,-0.52729 -2.00216,-0.52917 -0.17872,-0.002 -1.93377,1.21698 -3.90011,2.70856 l -3.57517,2.71198 -0.008,1.71979 c -0.0162,3.3507 -1.98828,5.75001 -4.75918,5.79016 -0.3638,0.005 -11.7938,-3.32842 -25.400008,-7.40821 z m 26.60507,3.87663 0.65184,-0.65185 -0.0686,-42.05383 -0.0686,-42.05385 -0.80906,-0.9996 c -0.44499,-0.54978 -1.09983,-1.21354 -1.45521,-1.47503 -0.35538,-0.26149 -11.18317,-3.63525 -24.06178,-7.49724 -12.878578,-3.86199 -23.623971,-7.08683 -23.878633,-7.16629 -0.4397,-0.13721 -0.463023,2.07497 -0.463023,43.91587 v 44.06034 l 1.124482,0.32987 c 0.618463,0.18142 11.482916,3.44799 24.143216,7.25904 12.660328,3.81104 23.292068,6.9416 23.626098,6.95679 0.33404,0.0152 0.90067,-0.26571 1.25919,-0.62422 z m -25.744129,-62.1827 c -6.00215,-1.78462 -11.09208,-3.39338 -11.31093,-3.57501 -0.336489,-0.27926 -0.39793,-1.4513 -0.39793,-7.5913 0,-4.49924 0.104179,-7.45569 0.273899,-7.77281 0.168571,-0.31497 0.552892,-0.51177 0.99945,-0.51177 1.220751,0 22.37281,6.33892 22.73758,6.81408 0.24629,0.32082 0.33073,2.30551 0.33073,7.77358 0,7.28786 -0.004,7.34584 -0.58804,7.75464 -0.32342,0.22653 -0.71037,0.39871 -0.85989,0.38262 -0.14952,-0.0161 -5.182709,-1.48941 -11.184869,-3.27403 z m 9.722389,-5.4658 -0.1323,-5.33022 -4.365619,-1.29074 c -2.401091,-0.7099 -6.53851,-1.92985 -9.19426,-2.711 l -4.828651,-1.42027 0.003,5.32888 0.003,5.32889 9.059011,2.6849 c 4.982459,1.47669 9.178079,2.69724 9.323599,2.71234 0.17246,0.0179 0.21852,-1.82856 0.1323,-5.30278 z m 23.21719,57.43832 1.91823,-1.4274 v -39.63817 -39.63817 l -3.18801,2.18906 c -2.9399,2.0187 -3.17399,2.24083 -3.00789,2.85423 0.0991,0.36584 0.27833,1.14141 0.39836,1.7235 0.12004,0.58208 0.22343,18.06864 0.22977,38.85902 l 0.0115,37.80068 0.8599,-0.64768 c 0.47294,-0.35621 1.7231,-1.29 2.77812,-2.07507 z m 9.85815,-1.57581 c 0.5285,-0.5285 0.53119,-0.77485 0.46302,-42.39948 -0.0662,-40.45499 -0.0854,-41.90189 -0.56882,-42.87504 -0.27514,-0.55392 -0.89537,-1.30849 -1.3783,-1.67684 -0.65033,-0.49603 -7.03368,-2.51643 -24.613,-7.79028 -13.054229,-3.916304 -23.834219,-7.120553 -23.955549,-7.120553 -0.12133,0 -0.22061,1.186013 -0.22061,2.635583 v 2.635583 l 1.256779,0.373682 c 23.09227,6.866145 43.33724,13.057805 43.62004,13.340605 0.30972,0.30972 0.36694,6.77501 0.36694,41.45688 v 41.08992 l 1.38906,0.40942 c 1.95572,0.57644 3.00749,0.55347 3.64044,-0.0795 z m -12.66677,-79.28896 c 1.89008,-1.32414 2.78114,-2.09676 2.55713,-2.21724 -0.1891,-0.10171 -12.54773,-3.84591 -27.463619,-8.32045 -14.91588,-4.474529 -27.243241,-8.182581 -27.39413,-8.240114 -0.209013,-0.07969 -4.960387,3.0709 -5.608301,3.718816 -0.06605,0.06605 0.278018,0.236768 0.764608,0.379362 12.861203,3.769006 50.708102,15.279156 51.626962,15.700996 0.69585,0.31945 1.39954,0.74271 1.56375,0.94058 0.40188,0.48423 0.6077,0.3821 3.9536,-1.96195 z m -57.641715,-11.7491 c -0.112967,-0.10804 -1.515078,-0.57183 -3.115807,-1.03064 -1.60073,-0.458811 -3.839298,-1.123635 -4.974596,-1.477388 -1.135298,-0.353754 -2.177095,-0.643189 -2.315104,-0.643189 -0.147722,0 -0.250925,1.74112 -0.250925,4.233337 0,3.72047 0.05177,4.23334 0.42728,4.23334 0.495367,0 9.299967,2.60181 9.89147,2.92298 0.343688,0.18662 0.406669,-0.3378 0.469974,-3.91325 0.0402,-2.27082 -0.01931,-4.21715 -0.132292,-4.32519 z"
         id="path118352" />
    </clipPath>
    <filter
       id="mask-powermask-path-effect1737_inverse"
       inkscape:label="filtermask-powermask-path-effect1737"
       style="color-interpolation-filters:sRGB"
       height="100"
       width="100"
       x="-50"
       y="-50">
      <feColorMatrix
         id="mask-powermask-path-effect1737_primitive1"
         values="1"
         type="saturate"
         result="fbSourceGraphic" />
      <feColorMatrix
         id="mask-powermask-path-effect1737_primitive2"
         values="-1 0 0 0 1 0 -1 0 0 1 0 0 -1 0 1 0 0 0 1 0 "
         in="fbSourceGraphic" />
    </filter>
    <filter
       id="mask-powermask-path-effect2655_inverse"
       inkscape:label="filtermask-powermask-path-effect2655"
       style="color-interpolation-filters:sRGB"
       height="100"
       width="100"
       x="-50"
       y="-50">
      <feColorMatrix
         id="mask-powermask-path-effect2655_primitive1"
         values="1"
         type="saturate"
         result="fbSourceGraphic" />
      <feColorMatrix
         id="mask-powermask-path-effect2655_primitive2"
         values="-1 0 0 0 1 0 -1 0 0 1 0 0 -1 0 1 0 0 0 1 0 "
         in="fbSourceGraphic" />
    </filter>
    <filter
       id="mask-powermask-path-effect2837_inverse"
       inkscape:label="filtermask-powermask-path-effect2837"
       style="color-interpolation-filters:sRGB"
       height="100"
       width="100"
       x="-50"
       y="-50">
      <feColorMatrix
         id="mask-powermask-path-effect2837_primitive1"
         values="1"
         type="saturate"
         result="fbSourceGraphic" />
      <feColorMatrix
         id="mask-powermask-path-effect2837_primitive2"
         values="-1 0 0 0 1 0 -1 0 0 1 0 0 -1 0 1 0 0 0 1 0 "
         in="fbSourceGraphic" />
    </filter>
  </defs>
  <g
     inkscape:label="Capa 1"
     inkscape:groupmode="layer"
     id="layer1"
     transform="translate(-8.4513016,-59.24231)">
    <circle
       style="fill:#ffffff;fill-opacity:1;stroke:none;stroke-width:0.79375;stroke-miterlimit:4;stroke-dasharray:none;stroke-opacity:1"
       id="path114647-2"
       r="79.263351"
       cy="138.50566"
       cx="87.714653" />
    <path
       style="fill:#fb4936;fill-opacity:1;stroke:#fb4936;stroke-width:1;stroke-opacity:1"
       d="m 84.918023,193.69382 c -13.606198,-4.0798 -27.587418,-8.26835 -31.069368,-9.3079 -3.48196,-1.03954 -6.68778,-2.13186 -7.12405,-2.42738 -0.43626,-0.29551 -1.06997,-1.06202 -1.40823,-1.70338 l -0.61502,-1.1661 v -45.07243 c 0,-42.605188 0.0254,-45.093234 0.46302,-45.451972 0.58824,-0.482147 16.29303,-11.524169 17.11627,-12.034431 0.56333,-0.349165 1.21181,-0.200455 7.85539,1.801399 3.98275,1.20009 18.135577,5.449365 31.450735,9.442832 13.31516,3.993467 24.74389,7.460055 25.39718,7.703525 1.5919,0.59327 3.73923,2.77284 4.38795,4.453838 0.49433,1.280939 0.51178,2.577129 0.57982,43.081679 0.0466,27.73682 -0.0203,42.09707 -0.19933,42.7618 -0.35664,1.32447 -1.14856,2.29153 -2.39884,2.92937 -1.2973,0.66185 -2.67024,0.6607 -4.7906,-0.004 -0.92247,-0.28917 -1.82344,-0.52728 -2.00216,-0.52916 -0.17872,-0.002 -1.93377,1.21698 -3.90011,2.70856 l -3.57517,2.71198 -0.008,1.71979 c -0.0162,3.3507 -1.98828,5.75001 -4.75918,5.79016 -0.3638,0.005 -11.793801,-3.32842 -25.400007,-7.40821 z m 26.605067,3.87663 0.65184,-0.65185 -0.0686,-42.05382 -0.0686,-42.05385 -0.80906,-0.9996 c -0.44499,-0.54978 -1.09983,-1.21354 -1.45521,-1.47503 -0.35538,-0.26149 -11.183171,-3.63525 -24.061777,-7.49724 -12.878578,-3.861997 -23.623978,-7.086837 -23.878638,-7.166297 -0.4397,-0.13721 -0.46302,2.07497 -0.46302,43.915877 v 44.06033 l 1.12448,0.32987 c 0.61846,0.18142 11.48292,3.44799 24.143218,7.25904 12.660326,3.81104 23.292067,6.9416 23.626097,6.95679 0.33404,0.0152 0.90067,-0.26571 1.25919,-0.62422 z M 85.778963,135.38776 c -6.00215,-1.78462 -11.092078,-3.39338 -11.310928,-3.57501 -0.33649,-0.27926 -0.39793,-1.4513 -0.39793,-7.5913 0,-4.49924 0.10418,-7.45569 0.2739,-7.77281 0.16857,-0.31497 0.55289,-0.51177 0.99945,-0.51177 1.22075,0 22.372804,6.33892 22.737574,6.81408 0.24629,0.32082 0.33073,2.30551 0.33073,7.77358 0,7.28786 -0.004,7.34584 -0.58804,7.75464 -0.32342,0.22653 -0.710367,0.39871 -0.859887,0.38262 -0.14952,-0.0161 -5.18271,-1.48941 -11.184869,-3.27403 z m 9.722389,-5.4658 -0.1323,-5.33022 -4.36562,-1.29074 c -2.40109,-0.7099 -6.538509,-1.92985 -9.194259,-2.711 l -4.828648,-1.42027 0.003,5.32888 0.003,5.32889 9.059008,2.6849 c 4.982459,1.47669 9.178079,2.69724 9.323599,2.71234 0.17246,0.0179 0.21852,-1.82856 0.1323,-5.30278 z m 23.217188,57.43832 1.91823,-1.4274 v -39.63817 -39.63817 l -3.18801,2.18906 c -2.9399,2.0187 -3.17399,2.24083 -3.00789,2.85423 0.0991,0.36584 0.27833,1.14141 0.39836,1.7235 0.12004,0.58208 0.22343,18.06864 0.22977,38.85902 l 0.0115,37.80068 0.8599,-0.64769 c 0.47294,-0.35621 1.7231,-1.28999 2.77812,-2.07507 z m 9.85815,-1.57581 c 0.5285,-0.5285 0.53119,-0.77485 0.46302,-42.39948 -0.0662,-40.45499 -0.0854,-41.90189 -0.56882,-42.87504 -0.27514,-0.553919 -0.89537,-1.308499 -1.3783,-1.676847 -0.65033,-0.49603 -7.03368,-2.51643 -24.613,-7.790283 -13.054228,-3.916304 -23.834217,-7.120553 -23.955547,-7.120553 -0.12133,0 -0.22061,1.186013 -0.22061,2.635583 v 2.635583 l 1.25678,0.373682 c 23.092267,6.866148 43.337237,13.057815 43.620037,13.340615 0.30972,0.30972 0.36694,6.77501 0.36694,41.45688 v 41.08992 l 1.38906,0.40942 c 1.95572,0.57644 3.00749,0.55347 3.64044,-0.0795 z m -12.66677,-79.28896 c 1.89008,-1.32414 2.78114,-2.09676 2.55713,-2.21724 -0.1891,-0.10171 -12.54773,-3.84591 -27.463618,-8.320457 -14.915877,-4.474532 -27.243237,-8.182584 -27.394127,-8.240117 -0.20902,-0.07969 -4.96039,3.0709 -5.6083,3.718816 -0.0661,0.06605 0.27801,0.236767 0.7646,0.379363 12.86121,3.769008 50.708105,15.279165 51.626965,15.701005 0.69585,0.31945 1.39954,0.74271 1.56375,0.94058 0.40188,0.48423 0.6077,0.3821 3.9536,-1.96195 z M 58.268205,94.746403 c -0.11297,-0.10804 -1.51508,-0.57183 -3.11581,-1.03064 -1.60073,-0.45881 -3.83929,-1.123639 -4.97459,-1.477392 -1.1353,-0.353753 -2.1771,-0.643188 -2.31511,-0.643188 -0.14772,0 -0.25092,1.74112 -0.25092,4.23334 0,3.720468 0.0518,4.233347 0.42728,4.233347 0.49537,0 9.29997,2.60181 9.89147,2.92298 0.34369,0.18662 0.40667,-0.3378 0.46997,-3.913259 0.0402,-2.270818 -0.0193,-4.217148 -0.13229,-4.325188 z"
       id="path854-7" />
    <text
       xml:space="preserve"
       style="font-size:9.35685px;line-height:1.25;font-family:'DroidSansMono Nerd Font';-inkscape-font-specification:'DroidSansMono Nerd Font';fill:#fb4936;fill-opacity:1;stroke:#fb4936;stroke-width:0.526;stroke-miterlimit:4;stroke-dasharray:none;stroke-opacity:1"
       x="123.9816"
       y="157.65709"
       id="text11716-8-0"
       inkscape:transform-center-x="-6.7484982"
       inkscape:transform-center-y="-2.4239969"
       transform="rotate(13.129944)"><tspan
         sodipodi:role="line"
         style="font-style:normal;font-variant:normal;font-weight:normal;font-stretch:normal;font-size:9.35685px;font-family:'Ancizar Sans';-inkscape-font-specification:'Ancizar Sans';fill:#fb4936;fill-opacity:1;stroke:#fb4936;stroke-width:0.526;stroke-miterlimit:4;stroke-dasharray:none;stroke-opacity:1"
         x="123.9816"
         y="157.65709"
         id="tspan11718-4-9">pdf</tspan></text>
    <text
       xml:space="preserve"
       style="font-size:16.9333px;line-height:1.25;font-family:'DroidSansMono Nerd Font';-inkscape-font-specification:'DroidSansMono Nerd Font';fill:#fb4936;fill-opacity:1;stroke:#fb4936;stroke-width:0.79375;stroke-miterlimit:4;stroke-dasharray:none;stroke-opacity:1"
       x="108.79594"
       y="151.02821"
       id="text11716-8-3-3"
       inkscape:transform-center-x="-6.7484982"
       inkscape:transform-center-y="-2.4239969"
       transform="rotate(13.129944)"><tspan
         sodipodi:role="line"
         style="font-style:normal;font-variant:normal;font-weight:normal;font-stretch:normal;font-size:16.9333px;font-family:'Ancizar Sans';-inkscape-font-specification:'Ancizar Sans';fill:#fb4936;fill-opacity:1;stroke:#fb4936;stroke-width:0.79375;stroke-miterlimit:4;stroke-dasharray:none;stroke-opacity:1"
         x="108.79594"
         y="151.02821"
         id="tspan11718-4-6-6">UN</tspan></text>
  </g>
  <style
     type="text/css"
     id="style18577">
	.st0{fill:#FFFFFF;stroke:#000000;stroke-width:4;stroke-miterlimit:10;}
	.st1{fill:#55595B;}
	.st2{fill:#456A3E;}
	.st3{fill:#A61B30;}
	.st4{fill:#94B43B;stroke:#456A3E;stroke-width:4;stroke-miterlimit:10;}
	.st5{fill:#FFFFFF;}
	.st6{fill:none;stroke:#000000;stroke-width:5;stroke-miterlimit:10;}
</style>
</svg>
