<?xml version="1.0" encoding="UTF-8" standalone="no"?>
<!-- Created with Inkscape (http://www.inkscape.org/) -->

<svg
   width="210mm"
   height="297mm"
   viewBox="0 0 210 297"
   version="1.1"
   id="svg5"
   inkscape:export-filename="/home/daniel/unpdf.png"
   inkscape:export-xdpi="96"
   inkscape:export-ydpi="96"
   inkscape:version="1.1.1 (1:1.1+202109281949+c3084ef5ed)"
   sodipodi:docname="unpdf.svg"
   xmlns:inkscape="http://www.inkscape.org/namespaces/inkscape"
   xmlns:sodipodi="http://sodipodi.sourceforge.net/DTD/sodipodi-0.dtd"
   xmlns="http://www.w3.org/2000/svg"
   xmlns:svg="http://www.w3.org/2000/svg">
  <sodipodi:namedview
     id="namedview7"
     pagecolor="#505050"
     bordercolor="#ffffff"
     borderopacity="1"
     inkscape:pageshadow="0"
     inkscape:pageopacity="0"
     inkscape:pagecheckerboard="1"
     inkscape:document-units="mm"
     showgrid="false"
     inkscape:zoom="0.75187991"
     inkscape:cx="284.61992"
     inkscape:cy="561.92484"
     inkscape:window-width="1920"
     inkscape:window-height="1016"
     inkscape:window-x="0"
     inkscape:window-y="27"
     inkscape:window-maximized="1"
     inkscape:current-layer="layer1" />
  <defs
     id="defs2" />
  <g
     inkscape:label="Capa 1"
     inkscape:groupmode="layer"
     id="layer1">
    <path
       style="fill:#fb4936;fill-opacity:1;stroke:#59241d;stroke-width:1;stroke-opacity:1"
       d="m 86.399806,197.02029 c -13.606195,-4.0798 -27.587411,-8.26835 -31.069367,-9.3079 -3.481956,-1.03955 -6.687775,-2.13187 -7.124044,-2.42738 -0.436266,-0.29551 -1.069972,-1.06203 -1.408234,-1.70338 l -0.615019,-1.1661 v -45.07244 c 0,-42.605163 0.02535,-45.093209 0.463021,-45.451947 0.588237,-0.482147 16.293023,-11.524169 17.116264,-12.034431 0.563329,-0.349165 1.21181,-0.200455 7.855389,1.801399 3.982752,1.20009 18.13559,5.449365 31.450744,9.442832 13.31516,3.993467 24.74389,7.460051 25.39718,7.703519 1.5919,0.593273 3.73923,2.772838 4.38795,4.453828 0.49433,1.28093 0.51178,2.57712 0.57982,43.08167 0.0466,27.73683 -0.0203,42.09708 -0.19933,42.76181 -0.35664,1.32447 -1.14856,2.29153 -2.39884,2.92937 -1.2973,0.66184 -2.67024,0.6607 -4.7906,-0.004 -0.92247,-0.28917 -1.82344,-0.52729 -2.00216,-0.52917 -0.17872,-0.002 -1.93377,1.21698 -3.90011,2.70856 l -3.57517,2.71198 -0.008,1.71979 c -0.0162,3.3507 -1.98828,5.75001 -4.75918,5.79016 -0.3638,0.005 -11.7938,-3.32842 -25.400004,-7.40821 z m 26.605074,3.87663 0.65184,-0.65185 -0.0686,-42.05383 -0.0686,-42.05385 -0.80906,-0.9996 c -0.44499,-0.54978 -1.09983,-1.21354 -1.45521,-1.47503 -0.35538,-0.26149 -11.18317,-3.63525 -24.061774,-7.49724 -12.878591,-3.86198 -23.623981,-7.086811 -23.878643,-7.166277 -0.439698,-0.137206 -0.463021,2.074977 -0.463021,43.915857 v 44.06034 l 1.12448,0.32987 c 0.618463,0.18142 11.482916,3.44799 24.143224,7.25904 12.660324,3.81104 23.292064,6.9416 23.626094,6.95679 0.33404,0.0152 0.90067,-0.26571 1.25919,-0.62422 z m -25.744124,-62.1827 c -6.00216,-1.78462 -11.09208,-3.39338 -11.310938,-3.57501 -0.336489,-0.27926 -0.397926,-1.4513 -0.397926,-7.5913 0,-4.49924 0.104178,-7.45569 0.273892,-7.77281 0.168571,-0.31497 0.552902,-0.51177 0.999463,-0.51177 1.22075,0 22.372809,6.33892 22.737579,6.81408 0.24629,0.32082 0.33073,2.30551 0.33073,7.77358 0,7.28786 -0.004,7.34584 -0.58804,7.75464 -0.32342,0.22653 -0.71037,0.39871 -0.85989,0.38262 -0.14952,-0.0161 -5.18271,-1.48941 -11.18487,-3.27403 z m 9.72239,-5.4658 -0.1323,-5.33022 -4.36562,-1.29074 c -2.40109,-0.7099 -6.53852,-1.92985 -9.19427,-2.711 l -4.82865,-1.42027 0.003,5.32888 0.003,5.32889 9.05902,2.6849 c 4.98246,1.47669 9.17808,2.69724 9.3236,2.71234 0.17246,0.0179 0.21852,-1.82856 0.1323,-5.30278 z m 23.217184,57.43832 1.91823,-1.4274 V 149.62117 109.983 l -3.18801,2.18906 c -2.9399,2.0187 -3.17399,2.24083 -3.00789,2.85423 0.0991,0.36584 0.27833,1.14141 0.39836,1.7235 0.12004,0.58208 0.22343,18.06864 0.22977,38.85902 l 0.0115,37.80068 0.8599,-0.64768 c 0.47294,-0.35621 1.7231,-1.29 2.77812,-2.07507 z m 9.85815,-1.57581 c 0.5285,-0.5285 0.53119,-0.77485 0.46302,-42.39948 -0.0662,-40.45499 -0.0854,-41.90189 -0.56882,-42.87503 -0.27514,-0.55392 -0.89537,-1.30849 -1.3783,-1.67684 -0.65033,-0.49603 -7.03368,-2.516427 -24.613,-7.790275 -13.054224,-3.916304 -23.834224,-7.120553 -23.955554,-7.120553 -0.12133,0 -0.2206,1.186013 -0.2206,2.635583 v 2.635583 l 1.25677,0.373682 c 23.092274,6.866144 43.337244,13.05779 43.620044,13.34059 0.30972,0.30972 0.36694,6.77501 0.36694,41.45688 v 41.08992 l 1.38906,0.40942 c 1.95572,0.57644 3.00749,0.55347 3.64044,-0.0795 z m -12.66677,-79.28896 c 1.89008,-1.32414 2.78114,-2.09676 2.55713,-2.21724 -0.1891,-0.10171 -12.54773,-3.8459 -27.463614,-8.320432 -14.915889,-4.474532 -27.243249,-8.182584 -27.394138,-8.240117 -0.209013,-0.07969 -4.960388,3.0709 -5.608302,3.718816 -0.06605,0.06605 0.278019,0.236767 0.764609,0.379363 12.8612,3.769003 50.708105,15.27914 51.626965,15.70098 0.69585,0.31945 1.39954,0.74271 1.56375,0.94058 0.40188,0.48423 0.6077,0.3821 3.9536,-1.96195 z M 59.749991,98.072884 c -0.112966,-0.108041 -1.515078,-0.571829 -3.115807,-1.030639 -1.600729,-0.458811 -3.839297,-1.123636 -4.974595,-1.477389 -1.135298,-0.353753 -2.177095,-0.643188 -2.315105,-0.643188 -0.147722,0 -0.250925,1.741119 -0.250925,4.233334 0,3.720468 0.05177,4.233338 0.427281,4.233338 0.495366,0 9.299966,2.6018 9.891469,2.92297 0.343688,0.18662 0.40667,-0.3378 0.469974,-3.91324 0.0402,-2.27081 -0.01931,-4.217145 -0.132292,-4.325186 z"
       id="path854" />
    <text
       xml:space="preserve"
       style="font-size:25.8513px;line-height:1.25;font-family:'DroidSansMono Nerd Font';-inkscape-font-specification:'DroidSansMono Nerd Font';fill:#fb4936;fill-opacity:1;stroke:#59241d;stroke-width:0.794279;stroke-miterlimit:4;stroke-dasharray:none;stroke-opacity:1"
       x="122.39082"
       y="151.98256"
       id="text11716"
       inkscape:transform-center-x="-10.199908"
       inkscape:transform-center-y="-3.5546838"
       transform="rotate(13.687121)"><tspan
         sodipodi:role="line"
         style="font-style:normal;font-variant:normal;font-weight:normal;font-stretch:normal;font-family:'Ubuntu Mono';-inkscape-font-specification:'Ubuntu Mono';fill:#fb4936;fill-opacity:1;stroke:#59241d;stroke-width:0.794279;stroke-miterlimit:4;stroke-dasharray:none;stroke-opacity:1"
         x="122.39082"
         y="151.98256"
         id="tspan11718">UN</tspan></text>
    <text
       xml:space="preserve"
       style="font-size:14.1111px;line-height:1.25;font-family:'DroidSansMono Nerd Font';-inkscape-font-specification:'DroidSansMono Nerd Font';fill:#fb4936;fill-opacity:1;stroke:#59241d;stroke-width:0.79375;stroke-miterlimit:4;stroke-dasharray:none;stroke-opacity:1"
       x="129.49301"
       y="165.94194"
       id="text11716-8"
       inkscape:transform-center-x="-10.177429"
       inkscape:transform-center-y="-3.6556463"
       transform="rotate(13.129944)"><tspan
         sodipodi:role="line"
         style="font-style:normal;font-variant:normal;font-weight:normal;font-stretch:normal;font-size:14.1111px;font-family:'Ubuntu Mono';-inkscape-font-specification:'Ubuntu Mono';fill:#fb4936;fill-opacity:1;stroke:#59241d;stroke-width:0.79375;stroke-miterlimit:4;stroke-dasharray:none;stroke-opacity:1"
         x="129.49301"
         y="165.94194"
         id="tspan11718-4">PDF</tspan></text>
  </g>
</svg>
